<mxfile host="app.diagrams.net" agent="Mozilla/5.0 (Windows NT 10.0; Win64; x64) AppleWebKit/537.36 (KHTML, like Gecko) Chrome/129.0.0.0 Safari/537.36 Edg/129.0.0.0" version="24.7.17">
  <diagram name="第 1 页" id="xHChFZ82a_6qfNxTW7UE">
    <mxGraphModel dx="1501" dy="786" grid="1" gridSize="10" guides="1" tooltips="1" connect="1" arrows="1" fold="1" page="1" pageScale="1" pageWidth="827" pageHeight="1169" math="0" shadow="0">
      <root>
        <mxCell id="0" />
        <mxCell id="1" parent="0" />
        <mxCell id="5ZELdZicgLYZWnCXcTFs-1" value="his=12&lt;div&gt;pred=12&lt;/div&gt;&lt;div&gt;batch=16&lt;/div&gt;" style="shape=note;whiteSpace=wrap;html=1;backgroundOutline=1;fontColor=#000000;darkOpacity=0.05;fillColor=#FFF9B2;strokeColor=none;fillStyle=solid;direction=west;gradientDirection=north;gradientColor=#FFF2A1;shadow=1;size=20;pointerEvents=1;" parent="1" vertex="1">
          <mxGeometry x="-490" y="10" width="140" height="160" as="geometry" />
        </mxCell>
        <mxCell id="5ZELdZicgLYZWnCXcTFs-2" value="trainX(10171,12,307)&lt;div&gt;trainY(10171,12,307)&lt;/div&gt;&lt;div&gt;仅标准化后的流量特征&lt;/div&gt;" style="text;strokeColor=none;align=center;fillColor=none;html=1;verticalAlign=middle;whiteSpace=wrap;rounded=0;" parent="1" vertex="1">
          <mxGeometry x="-800" y="210" width="190" height="100" as="geometry" />
        </mxCell>
        <mxCell id="5ZELdZicgLYZWnCXcTFs-3" value="x（16,12,307）" style="text;strokeColor=none;align=center;fillColor=none;html=1;verticalAlign=middle;whiteSpace=wrap;rounded=0;" parent="1" vertex="1">
          <mxGeometry x="-413" y="245" width="140" height="30" as="geometry" />
        </mxCell>
        <mxCell id="5ZELdZicgLYZWnCXcTFs-4" value="" style="endArrow=classic;html=1;rounded=0;" parent="1" edge="1">
          <mxGeometry width="50" height="50" relative="1" as="geometry">
            <mxPoint x="-350" y="270" as="sourcePoint" />
            <mxPoint x="-350" y="340" as="targetPoint" />
          </mxGeometry>
        </mxCell>
        <mxCell id="5ZELdZicgLYZWnCXcTFs-5" value="x.permute(0, 2, 1).unsqueeze(1)" style="text;whiteSpace=wrap;html=1;" parent="1" vertex="1">
          <mxGeometry x="-330" y="290" width="200" height="40" as="geometry" />
        </mxCell>
        <mxCell id="5ZELdZicgLYZWnCXcTFs-6" value="x（16, 1,307,12）" style="text;strokeColor=none;align=center;fillColor=none;html=1;verticalAlign=middle;whiteSpace=wrap;rounded=0;" parent="1" vertex="1">
          <mxGeometry x="-413" y="350" width="140" height="30" as="geometry" />
        </mxCell>
        <mxCell id="5ZELdZicgLYZWnCXcTFs-7" value="nn.Conv2d(in_channels, embed_size, 1)" style="text;whiteSpace=wrap;html=1;" parent="1" vertex="1">
          <mxGeometry x="-310" y="410" width="250" height="40" as="geometry" />
        </mxCell>
        <mxCell id="5ZELdZicgLYZWnCXcTFs-8" value="" style="endArrow=classic;html=1;rounded=0;" parent="1" edge="1">
          <mxGeometry width="50" height="50" relative="1" as="geometry">
            <mxPoint x="-343.29" y="390" as="sourcePoint" />
            <mxPoint x="-343.29" y="460" as="targetPoint" />
          </mxGeometry>
        </mxCell>
        <mxCell id="5ZELdZicgLYZWnCXcTFs-9" value="input_Transformer（16, 64,307,12）" style="text;strokeColor=none;align=center;fillColor=none;html=1;verticalAlign=middle;whiteSpace=wrap;rounded=0;" parent="1" vertex="1">
          <mxGeometry x="-440" y="470" width="213" height="30" as="geometry" />
        </mxCell>
        <mxCell id="5ZELdZicgLYZWnCXcTFs-10" value="input_Transformer（16, 307,12,64）" style="text;strokeColor=none;align=center;fillColor=none;html=1;verticalAlign=middle;whiteSpace=wrap;rounded=0;" parent="1" vertex="1">
          <mxGeometry x="-430" y="585" width="213" height="30" as="geometry" />
        </mxCell>
        <mxCell id="5ZELdZicgLYZWnCXcTFs-12" value="" style="endArrow=classic;html=1;rounded=0;" parent="1" edge="1">
          <mxGeometry width="50" height="50" relative="1" as="geometry">
            <mxPoint x="-343.29" y="510" as="sourcePoint" />
            <mxPoint x="-343.29" y="580" as="targetPoint" />
          </mxGeometry>
        </mxCell>
        <mxCell id="5ZELdZicgLYZWnCXcTFs-13" value="permute(0, 2, 3, 1)" style="text;whiteSpace=wrap;html=1;" parent="1" vertex="1">
          <mxGeometry x="-310" y="530" width="130" height="40" as="geometry" />
        </mxCell>
        <mxCell id="5ZELdZicgLYZWnCXcTFs-14" value="self.ST1(input_Transformer)" style="text;whiteSpace=wrap;html=1;" parent="1" vertex="1">
          <mxGeometry x="-310" y="640" width="180" height="40" as="geometry" />
        </mxCell>
        <mxCell id="5ZELdZicgLYZWnCXcTFs-15" value="" style="endArrow=classic;html=1;rounded=0;" parent="1" edge="1">
          <mxGeometry width="50" height="50" relative="1" as="geometry">
            <mxPoint x="-343.29" y="625" as="sourcePoint" />
            <mxPoint x="-343.29" y="695" as="targetPoint" />
          </mxGeometry>
        </mxCell>
        <mxCell id="5ZELdZicgLYZWnCXcTFs-16" value="out(16,307,12,64)" style="text;strokeColor=none;align=center;fillColor=none;html=1;verticalAlign=middle;whiteSpace=wrap;rounded=0;" parent="1" vertex="1">
          <mxGeometry x="-413" y="700" width="140" height="30" as="geometry" />
        </mxCell>
        <mxCell id="5ZELdZicgLYZWnCXcTFs-17" value="self.norm1(out+input_Transformer)" style="text;whiteSpace=wrap;html=1;" parent="1" vertex="1">
          <mxGeometry x="-320" y="740" width="220" height="40" as="geometry" />
        </mxCell>
        <mxCell id="5ZELdZicgLYZWnCXcTFs-18" value="" style="endArrow=classic;html=1;rounded=0;" parent="1" edge="1">
          <mxGeometry width="50" height="50" relative="1" as="geometry">
            <mxPoint x="-343.29" y="730" as="sourcePoint" />
            <mxPoint x="-343.29" y="800" as="targetPoint" />
          </mxGeometry>
        </mxCell>
        <mxCell id="5ZELdZicgLYZWnCXcTFs-19" value="out(16,307,12,64)" style="text;strokeColor=none;align=center;fillColor=none;html=1;verticalAlign=middle;whiteSpace=wrap;rounded=0;" parent="1" vertex="1">
          <mxGeometry x="-413" y="805" width="140" height="30" as="geometry" />
        </mxCell>
        <mxCell id="5ZELdZicgLYZWnCXcTFs-20" value="self.ST2(out)" style="text;whiteSpace=wrap;html=1;" parent="1" vertex="1">
          <mxGeometry x="-320" y="850" width="100" height="40" as="geometry" />
        </mxCell>
        <mxCell id="5ZELdZicgLYZWnCXcTFs-21" value="" style="endArrow=classic;html=1;rounded=0;" parent="1" edge="1">
          <mxGeometry width="50" height="50" relative="1" as="geometry">
            <mxPoint x="-343.29" y="835" as="sourcePoint" />
            <mxPoint x="-343.29" y="905" as="targetPoint" />
          </mxGeometry>
        </mxCell>
        <mxCell id="5ZELdZicgLYZWnCXcTFs-22" value="out(16,307,12,64)" style="text;strokeColor=none;align=center;fillColor=none;html=1;verticalAlign=middle;whiteSpace=wrap;rounded=0;" parent="1" vertex="1">
          <mxGeometry x="-413" y="910" width="140" height="30" as="geometry" />
        </mxCell>
        <mxCell id="5ZELdZicgLYZWnCXcTFs-23" value="permute(0, 2, 1, 3)" style="text;whiteSpace=wrap;html=1;" parent="1" vertex="1">
          <mxGeometry x="-310" y="950" width="130" height="40" as="geometry" />
        </mxCell>
        <mxCell id="5ZELdZicgLYZWnCXcTFs-24" value="out(16,12,307,64)" style="text;strokeColor=none;align=center;fillColor=none;html=1;verticalAlign=middle;whiteSpace=wrap;rounded=0;" parent="1" vertex="1">
          <mxGeometry x="-413" y="1015" width="140" height="30" as="geometry" />
        </mxCell>
        <mxCell id="5ZELdZicgLYZWnCXcTFs-25" value="" style="endArrow=classic;html=1;rounded=0;" parent="1" edge="1">
          <mxGeometry width="50" height="50" relative="1" as="geometry">
            <mxPoint x="-343.29" y="940" as="sourcePoint" />
            <mxPoint x="-343.29" y="1010" as="targetPoint" />
          </mxGeometry>
        </mxCell>
        <UserObject label="self.relu(self.conv2(out))" id="5ZELdZicgLYZWnCXcTFs-26">
          <mxCell style="text;whiteSpace=wrap;html=1;" parent="1" vertex="1">
            <mxGeometry x="-325" y="1060" width="160" height="40" as="geometry" />
          </mxCell>
        </UserObject>
        <mxCell id="5ZELdZicgLYZWnCXcTFs-28" value="" style="endArrow=classic;html=1;rounded=0;" parent="1" edge="1">
          <mxGeometry width="50" height="50" relative="1" as="geometry">
            <mxPoint x="-343.29" y="1050" as="sourcePoint" />
            <mxPoint x="-343.29" y="1120" as="targetPoint" />
          </mxGeometry>
        </mxCell>
        <mxCell id="5ZELdZicgLYZWnCXcTFs-29" value="out(16,12,307,64)" style="text;strokeColor=none;align=center;fillColor=none;html=1;verticalAlign=middle;whiteSpace=wrap;rounded=0;" parent="1" vertex="1">
          <mxGeometry x="-413" y="1125" width="140" height="30" as="geometry" />
        </mxCell>
        <mxCell id="5ZELdZicgLYZWnCXcTFs-30" value="permute(0, 3, 2, 1)" style="text;whiteSpace=wrap;html=1;" parent="1" vertex="1">
          <mxGeometry x="-310" y="1169" width="130" height="40" as="geometry" />
        </mxCell>
        <mxCell id="5ZELdZicgLYZWnCXcTFs-31" value="" style="endArrow=classic;html=1;rounded=0;" parent="1" edge="1">
          <mxGeometry width="50" height="50" relative="1" as="geometry">
            <mxPoint x="-343.29" y="1155" as="sourcePoint" />
            <mxPoint x="-343.29" y="1225" as="targetPoint" />
          </mxGeometry>
        </mxCell>
        <mxCell id="5ZELdZicgLYZWnCXcTFs-32" value="out(16,64,307,12)" style="text;strokeColor=none;align=center;fillColor=none;html=1;verticalAlign=middle;whiteSpace=wrap;rounded=0;" parent="1" vertex="1">
          <mxGeometry x="-413" y="1230" width="140" height="30" as="geometry" />
        </mxCell>
        <mxCell id="5ZELdZicgLYZWnCXcTFs-33" value="self.conv3(out)" style="text;whiteSpace=wrap;html=1;" parent="1" vertex="1">
          <mxGeometry x="-320" y="1270" width="110" height="40" as="geometry" />
        </mxCell>
        <mxCell id="5ZELdZicgLYZWnCXcTFs-34" value="" style="endArrow=classic;html=1;rounded=0;" parent="1" edge="1">
          <mxGeometry width="50" height="50" relative="1" as="geometry">
            <mxPoint x="-343.29" y="1260" as="sourcePoint" />
            <mxPoint x="-343.29" y="1330" as="targetPoint" />
          </mxGeometry>
        </mxCell>
        <mxCell id="5ZELdZicgLYZWnCXcTFs-35" value="out(16,1,307,12)" style="text;strokeColor=none;align=center;fillColor=none;html=1;verticalAlign=middle;whiteSpace=wrap;rounded=0;" parent="1" vertex="1">
          <mxGeometry x="-413" y="1335" width="140" height="30" as="geometry" />
        </mxCell>
        <mxCell id="5ZELdZicgLYZWnCXcTFs-36" value="out.squeeze(1)" style="text;whiteSpace=wrap;html=1;" parent="1" vertex="1">
          <mxGeometry x="-320" y="1380" width="110" height="40" as="geometry" />
        </mxCell>
        <mxCell id="5ZELdZicgLYZWnCXcTFs-40" value="" style="endArrow=classic;html=1;rounded=0;" parent="1" edge="1">
          <mxGeometry width="50" height="50" relative="1" as="geometry">
            <mxPoint x="-343.29" y="1365" as="sourcePoint" />
            <mxPoint x="-343.29" y="1435" as="targetPoint" />
          </mxGeometry>
        </mxCell>
        <mxCell id="5ZELdZicgLYZWnCXcTFs-41" value="out(16,307,12)" style="text;strokeColor=none;align=center;fillColor=none;html=1;verticalAlign=middle;whiteSpace=wrap;rounded=0;" parent="1" vertex="1">
          <mxGeometry x="-413" y="1440" width="140" height="30" as="geometry" />
        </mxCell>
        <mxCell id="5ZELdZicgLYZWnCXcTFs-42" value="out.permute(0, 2, 1)" style="text;whiteSpace=wrap;html=1;" parent="1" vertex="1">
          <mxGeometry x="-325" y="1480" width="140" height="40" as="geometry" />
        </mxCell>
        <mxCell id="5ZELdZicgLYZWnCXcTFs-43" value="" style="endArrow=classic;html=1;rounded=0;" parent="1" edge="1">
          <mxGeometry width="50" height="50" relative="1" as="geometry">
            <mxPoint x="-343.29" y="1470" as="sourcePoint" />
            <mxPoint x="-343.29" y="1540" as="targetPoint" />
          </mxGeometry>
        </mxCell>
        <mxCell id="5ZELdZicgLYZWnCXcTFs-44" value="out(16,12,307)" style="text;strokeColor=none;align=center;fillColor=none;html=1;verticalAlign=middle;whiteSpace=wrap;rounded=0;" parent="1" vertex="1">
          <mxGeometry x="-413" y="1545" width="140" height="30" as="geometry" />
        </mxCell>
        <mxCell id="5ZELdZicgLYZWnCXcTFs-45" value="nn.Conv2d(embed_size, 1, 1)" style="text;whiteSpace=wrap;html=1;" parent="1" vertex="1">
          <mxGeometry x="-200" y="1270" width="190" height="40" as="geometry" />
        </mxCell>
        <mxCell id="5ZELdZicgLYZWnCXcTFs-46" value="nn.Conv2d(T_dim, output_T_dim, 1)" style="text;whiteSpace=wrap;html=1;" parent="1" vertex="1">
          <mxGeometry x="-180" y="1060" width="230" height="40" as="geometry" />
        </mxCell>
        <mxCell id="8bOVuL7Xi47qhkHHKY2l-1" value="self.ST1(input_Transformer)" style="text;whiteSpace=wrap;html=1;" vertex="1" parent="1">
          <mxGeometry x="360" y="320" width="180" height="40" as="geometry" />
        </mxCell>
        <mxCell id="8bOVuL7Xi47qhkHHKY2l-3" value="input_Transformer（16, 307,12,64）" style="text;strokeColor=none;align=center;fillColor=none;html=1;verticalAlign=middle;whiteSpace=wrap;rounded=0;" vertex="1" parent="1">
          <mxGeometry x="343.5" y="400" width="213" height="30" as="geometry" />
        </mxCell>
        <mxCell id="8bOVuL7Xi47qhkHHKY2l-4" value="" style="endArrow=classic;html=1;rounded=0;" edge="1" parent="1">
          <mxGeometry width="50" height="50" relative="1" as="geometry">
            <mxPoint x="440" y="420" as="sourcePoint" />
            <mxPoint x="440" y="490" as="targetPoint" />
          </mxGeometry>
        </mxCell>
        <mxCell id="8bOVuL7Xi47qhkHHKY2l-5" value="self.S(input_Transformer, input_Transformer, input_Transformer)" style="text;whiteSpace=wrap;html=1;" vertex="1" parent="1">
          <mxGeometry x="460" y="440" width="380" height="40" as="geometry" />
        </mxCell>
        <mxCell id="8bOVuL7Xi47qhkHHKY2l-6" value="output_S（16，307，12，64）" style="text;whiteSpace=wrap;html=1;" vertex="1" parent="1">
          <mxGeometry x="350" y="490" width="185" height="40" as="geometry" />
        </mxCell>
        <mxCell id="8bOVuL7Xi47qhkHHKY2l-7" value="提取空间信息" style="text;whiteSpace=wrap;html=1;" vertex="1" parent="1">
          <mxGeometry x="620" y="420" width="110" height="40" as="geometry" />
        </mxCell>
        <mxCell id="8bOVuL7Xi47qhkHHKY2l-8" value="" style="endArrow=classic;html=1;rounded=0;" edge="1" parent="1">
          <mxGeometry width="50" height="50" relative="1" as="geometry">
            <mxPoint x="440" y="510" as="sourcePoint" />
            <mxPoint x="440" y="580" as="targetPoint" />
          </mxGeometry>
        </mxCell>
        <mxCell id="8bOVuL7Xi47qhkHHKY2l-9" value="output_S（16，307，12，64）" style="text;whiteSpace=wrap;html=1;" vertex="1" parent="1">
          <mxGeometry x="350" y="580" width="185" height="40" as="geometry" />
        </mxCell>
        <mxCell id="8bOVuL7Xi47qhkHHKY2l-10" value="self.norm1(output_S + input_Transformer)" style="text;whiteSpace=wrap;html=1;" vertex="1" parent="1">
          <mxGeometry x="490" y="540" width="260" height="40" as="geometry" />
        </mxCell>
        <mxCell id="8bOVuL7Xi47qhkHHKY2l-11" value="残差+层归一化" style="text;whiteSpace=wrap;html=1;" vertex="1" parent="1">
          <mxGeometry x="565" y="510" width="110" height="40" as="geometry" />
        </mxCell>
        <mxCell id="8bOVuL7Xi47qhkHHKY2l-12" value="" style="endArrow=classic;html=1;rounded=0;" edge="1" parent="1">
          <mxGeometry width="50" height="50" relative="1" as="geometry">
            <mxPoint x="440" y="605" as="sourcePoint" />
            <mxPoint x="440" y="675" as="targetPoint" />
          </mxGeometry>
        </mxCell>
        <mxCell id="8bOVuL7Xi47qhkHHKY2l-13" value="out_G（16，1，307，12）" style="text;whiteSpace=wrap;html=1;" vertex="1" parent="1">
          <mxGeometry x="350" y="675" width="185" height="40" as="geometry" />
        </mxCell>
        <UserObject label="out_G = (torch.tanh(self.global_temporal_conv_gate1(input_Transformer.permute(0, 3, 2, 1)))&#xa;                       * torch.sigmoid(self.global_temporal_conv_gate2(input_Transformer.permute(0, 3, 2, 1)))).permute(&#xa;            0, 2, 3, 1)" id="8bOVuL7Xi47qhkHHKY2l-14">
          <mxCell style="text;whiteSpace=wrap;html=1;" vertex="1" parent="1">
            <mxGeometry x="510" y="615" width="560" height="80" as="geometry" />
          </mxCell>
        </UserObject>
        <mxCell id="8bOVuL7Xi47qhkHHKY2l-15" value="提取全局时间信息" style="text;whiteSpace=wrap;html=1;" vertex="1" parent="1">
          <mxGeometry x="556.5" y="590" width="130" height="40" as="geometry" />
        </mxCell>
        <mxCell id="8bOVuL7Xi47qhkHHKY2l-16" value="" style="endArrow=classic;html=1;rounded=0;" edge="1" parent="1">
          <mxGeometry width="50" height="50" relative="1" as="geometry">
            <mxPoint x="433.5" y="705" as="sourcePoint" />
            <mxPoint x="433.5" y="775" as="targetPoint" />
          </mxGeometry>
        </mxCell>
        <mxCell id="8bOVuL7Xi47qhkHHKY2l-17" value="out_G（16，64，307，12）" style="text;whiteSpace=wrap;html=1;" vertex="1" parent="1">
          <mxGeometry x="343.5" y="775" width="185" height="40" as="geometry" />
        </mxCell>
        <mxCell id="8bOVuL7Xi47qhkHHKY2l-18" value="self.conv4(out_G)" style="text;whiteSpace=wrap;html=1;" vertex="1" parent="1">
          <mxGeometry x="450" y="720" width="130" height="40" as="geometry" />
        </mxCell>
        <mxCell id="8bOVuL7Xi47qhkHHKY2l-19" value="" style="endArrow=classic;html=1;rounded=0;" edge="1" parent="1">
          <mxGeometry width="50" height="50" relative="1" as="geometry">
            <mxPoint x="433.5" y="800" as="sourcePoint" />
            <mxPoint x="433.5" y="870" as="targetPoint" />
          </mxGeometry>
        </mxCell>
        <mxCell id="8bOVuL7Xi47qhkHHKY2l-20" value="out_G（16，307，12，64）" style="text;whiteSpace=wrap;html=1;" vertex="1" parent="1">
          <mxGeometry x="343.5" y="870" width="185" height="40" as="geometry" />
        </mxCell>
        <mxCell id="8bOVuL7Xi47qhkHHKY2l-21" value="out_G.permute(0, 2, 3, 1)" style="text;whiteSpace=wrap;html=1;" vertex="1" parent="1">
          <mxGeometry x="460" y="815" width="170" height="40" as="geometry" />
        </mxCell>
        <mxCell id="8bOVuL7Xi47qhkHHKY2l-22" value="self.norm3(out_G + input_Transformer)" style="text;whiteSpace=wrap;html=1;" vertex="1" parent="1">
          <mxGeometry x="470" y="910" width="240" height="40" as="geometry" />
        </mxCell>
        <mxCell id="8bOVuL7Xi47qhkHHKY2l-23" value="" style="endArrow=classic;html=1;rounded=0;" edge="1" parent="1">
          <mxGeometry width="50" height="50" relative="1" as="geometry">
            <mxPoint x="433.5" y="890" as="sourcePoint" />
            <mxPoint x="433.5" y="960" as="targetPoint" />
          </mxGeometry>
        </mxCell>
        <mxCell id="8bOVuL7Xi47qhkHHKY2l-24" value="out_G（16，307，12，64）" style="text;whiteSpace=wrap;html=1;" vertex="1" parent="1">
          <mxGeometry x="343.5" y="960" width="185" height="40" as="geometry" />
        </mxCell>
        <mxCell id="8bOVuL7Xi47qhkHHKY2l-25" value="" style="endArrow=classic;html=1;rounded=0;" edge="1" parent="1">
          <mxGeometry width="50" height="50" relative="1" as="geometry">
            <mxPoint x="433.5" y="990" as="sourcePoint" />
            <mxPoint x="433.5" y="1060" as="targetPoint" />
          </mxGeometry>
        </mxCell>
        <mxCell id="8bOVuL7Xi47qhkHHKY2l-26" value="out_G（16，307，768）" style="text;whiteSpace=wrap;html=1;" vertex="1" parent="1">
          <mxGeometry x="343.5" y="1060" width="185" height="40" as="geometry" />
        </mxCell>
        <mxCell id="8bOVuL7Xi47qhkHHKY2l-27" value="self.T_G(out_G, out_G, out_G, 4).reshape(-1, N, T * H)" style="text;whiteSpace=wrap;html=1;" vertex="1" parent="1">
          <mxGeometry x="460" y="1005" width="330" height="40" as="geometry" />
        </mxCell>
        <mxCell id="8bOVuL7Xi47qhkHHKY2l-28" value="" style="endArrow=classic;html=1;rounded=0;" edge="1" parent="1">
          <mxGeometry width="50" height="50" relative="1" as="geometry">
            <mxPoint x="433.5" y="1085" as="sourcePoint" />
            <mxPoint x="433.5" y="1155" as="targetPoint" />
          </mxGeometry>
        </mxCell>
        <mxCell id="8bOVuL7Xi47qhkHHKY2l-29" value="out_L（16，1，307,12）" style="text;whiteSpace=wrap;html=1;" vertex="1" parent="1">
          <mxGeometry x="343.5" y="1155" width="185" height="40" as="geometry" />
        </mxCell>
        <UserObject label="out_L = self.pool(torch.tanh(self.local_tempooral_conv_gate1(input_Transformer.permute(0, 3, 2, 1)))&#xa;                          * torch.sigmoid(&#xa;            self.local_tempooral_conv_gate2(input_Transformer.permute(0, 3, 2, 1)))).permute(0, 2, 3, 1)" id="8bOVuL7Xi47qhkHHKY2l-30">
          <mxCell style="text;whiteSpace=wrap;html=1;" vertex="1" parent="1">
            <mxGeometry x="480" y="1089" width="560" height="80" as="geometry" />
          </mxCell>
        </UserObject>
        <mxCell id="8bOVuL7Xi47qhkHHKY2l-31" value="提取局部时间信息" style="text;whiteSpace=wrap;html=1;" vertex="1" parent="1">
          <mxGeometry x="528.5" y="1070" width="130" height="40" as="geometry" />
        </mxCell>
        <mxCell id="8bOVuL7Xi47qhkHHKY2l-32" value="" style="endArrow=classic;html=1;rounded=0;" edge="1" parent="1">
          <mxGeometry width="50" height="50" relative="1" as="geometry">
            <mxPoint x="433.5" y="1190" as="sourcePoint" />
            <mxPoint x="433.5" y="1260" as="targetPoint" />
          </mxGeometry>
        </mxCell>
        <mxCell id="8bOVuL7Xi47qhkHHKY2l-33" value="out_L（16，64，307,12）" style="text;whiteSpace=wrap;html=1;" vertex="1" parent="1">
          <mxGeometry x="343.5" y="1260" width="185" height="40" as="geometry" />
        </mxCell>
        <mxCell id="8bOVuL7Xi47qhkHHKY2l-34" value="" style="endArrow=classic;html=1;rounded=0;" edge="1" parent="1">
          <mxGeometry width="50" height="50" relative="1" as="geometry">
            <mxPoint x="433.5" y="1295" as="sourcePoint" />
            <mxPoint x="433.5" y="1365" as="targetPoint" />
          </mxGeometry>
        </mxCell>
        <mxCell id="8bOVuL7Xi47qhkHHKY2l-35" value="out_L（16，307，12,64）" style="text;whiteSpace=wrap;html=1;" vertex="1" parent="1">
          <mxGeometry x="343.5" y="1365" width="185" height="40" as="geometry" />
        </mxCell>
        <mxCell id="8bOVuL7Xi47qhkHHKY2l-36" value="self.conv5(out_L)" style="text;whiteSpace=wrap;html=1;" vertex="1" parent="1">
          <mxGeometry x="470" y="1200" width="130" height="40" as="geometry" />
        </mxCell>
        <mxCell id="8bOVuL7Xi47qhkHHKY2l-37" value="out_L.permute(0, 2, 3, 1)" style="text;whiteSpace=wrap;html=1;" vertex="1" parent="1">
          <mxGeometry x="470" y="1310" width="170" height="40" as="geometry" />
        </mxCell>
        <mxCell id="8bOVuL7Xi47qhkHHKY2l-38" value="" style="endArrow=classic;html=1;rounded=0;" edge="1" parent="1">
          <mxGeometry width="50" height="50" relative="1" as="geometry">
            <mxPoint x="433.5" y="1380" as="sourcePoint" />
            <mxPoint x="433.5" y="1450" as="targetPoint" />
          </mxGeometry>
        </mxCell>
        <mxCell id="8bOVuL7Xi47qhkHHKY2l-39" value="out_L（16，307，12,64）" style="text;whiteSpace=wrap;html=1;" vertex="1" parent="1">
          <mxGeometry x="343.5" y="1450" width="185" height="40" as="geometry" />
        </mxCell>
        <mxCell id="8bOVuL7Xi47qhkHHKY2l-40" value="self.norm4(out_L + input_Transformer)" style="text;whiteSpace=wrap;html=1;" vertex="1" parent="1">
          <mxGeometry x="473.5" y="1405" width="240" height="40" as="geometry" />
        </mxCell>
        <mxCell id="8bOVuL7Xi47qhkHHKY2l-41" value="self.T_L(out_L, out_L, out_L, 4).reshape(-1, N, T * H)" style="text;whiteSpace=wrap;html=1;" vertex="1" parent="1">
          <mxGeometry x="460" y="1500" width="320" height="40" as="geometry" />
        </mxCell>
        <mxCell id="8bOVuL7Xi47qhkHHKY2l-42" value="" style="endArrow=classic;html=1;rounded=0;" edge="1" parent="1">
          <mxGeometry width="50" height="50" relative="1" as="geometry">
            <mxPoint x="433.5" y="1480" as="sourcePoint" />
            <mxPoint x="433.5" y="1550" as="targetPoint" />
          </mxGeometry>
        </mxCell>
        <mxCell id="8bOVuL7Xi47qhkHHKY2l-43" value="out_L（16，307，768）" style="text;whiteSpace=wrap;html=1;" vertex="1" parent="1">
          <mxGeometry x="343.5" y="1550" width="185" height="40" as="geometry" />
        </mxCell>
        <mxCell id="8bOVuL7Xi47qhkHHKY2l-44" value="" style="endArrow=classic;html=1;rounded=0;" edge="1" parent="1">
          <mxGeometry width="50" height="50" relative="1" as="geometry">
            <mxPoint x="433.5" y="1575" as="sourcePoint" />
            <mxPoint x="433.5" y="1645" as="targetPoint" />
          </mxGeometry>
        </mxCell>
        <mxCell id="8bOVuL7Xi47qhkHHKY2l-45" value="g（16，307，768）" style="text;whiteSpace=wrap;html=1;" vertex="1" parent="1">
          <mxGeometry x="357.5" y="1645" width="185" height="40" as="geometry" />
        </mxCell>
        <UserObject label="torch.sigmoid(self.fs(out_L) + self.fg(out_G))" id="8bOVuL7Xi47qhkHHKY2l-46">
          <mxCell style="text;whiteSpace=wrap;html=1;" vertex="1" parent="1">
            <mxGeometry x="460" y="1590" width="270" height="40" as="geometry" />
          </mxCell>
        </UserObject>
        <mxCell id="8bOVuL7Xi47qhkHHKY2l-47" value="" style="endArrow=classic;html=1;rounded=0;" edge="1" parent="1">
          <mxGeometry width="50" height="50" relative="1" as="geometry">
            <mxPoint x="431" y="1660" as="sourcePoint" />
            <mxPoint x="431" y="1730" as="targetPoint" />
          </mxGeometry>
        </mxCell>
        <mxCell id="8bOVuL7Xi47qhkHHKY2l-48" value="output_T（16，307，768）" style="text;whiteSpace=wrap;html=1;" vertex="1" parent="1">
          <mxGeometry x="355" y="1730" width="185" height="40" as="geometry" />
        </mxCell>
        <mxCell id="8bOVuL7Xi47qhkHHKY2l-49" value="g * out_L + (1 - g) * out_G" style="text;whiteSpace=wrap;html=1;" vertex="1" parent="1">
          <mxGeometry x="450" y="1685" width="170" height="40" as="geometry" />
        </mxCell>
        <mxCell id="8bOVuL7Xi47qhkHHKY2l-50" value="" style="endArrow=classic;html=1;rounded=0;" edge="1" parent="1">
          <mxGeometry width="50" height="50" relative="1" as="geometry">
            <mxPoint x="431" y="1754" as="sourcePoint" />
            <mxPoint x="431" y="1824" as="targetPoint" />
          </mxGeometry>
        </mxCell>
        <mxCell id="8bOVuL7Xi47qhkHHKY2l-51" value="output_T（16，307，12,64）" style="text;whiteSpace=wrap;html=1;" vertex="1" parent="1">
          <mxGeometry x="355" y="1824" width="185" height="40" as="geometry" />
        </mxCell>
        <mxCell id="8bOVuL7Xi47qhkHHKY2l-52" value="self.norm2(output_T.reshape(B, N, T, H) + input_Transformer)" style="text;whiteSpace=wrap;html=1;" vertex="1" parent="1">
          <mxGeometry x="460" y="1770" width="360" height="40" as="geometry" />
        </mxCell>
        <mxCell id="8bOVuL7Xi47qhkHHKY2l-53" value="" style="endArrow=classic;html=1;rounded=0;" edge="1" parent="1">
          <mxGeometry width="50" height="50" relative="1" as="geometry">
            <mxPoint x="431" y="1850" as="sourcePoint" />
            <mxPoint x="431" y="1920" as="targetPoint" />
          </mxGeometry>
        </mxCell>
        <mxCell id="8bOVuL7Xi47qhkHHKY2l-54" value="out（16，307，12,64）" style="text;whiteSpace=wrap;html=1;" vertex="1" parent="1">
          <mxGeometry x="355" y="1920" width="185" height="40" as="geometry" />
        </mxCell>
        <mxCell id="8bOVuL7Xi47qhkHHKY2l-55" value="out = self.Att(output_S.reshape(-1, N, T * H), output_T.reshape(-1, N, T * H),&#xa;                       output_T.reshape(-1, N, T * H)).reshape(-1, N, T, H)" style="text;whiteSpace=wrap;html=1;" vertex="1" parent="1">
          <mxGeometry x="480" y="1870" width="440" height="50" as="geometry" />
        </mxCell>
        <mxCell id="8bOVuL7Xi47qhkHHKY2l-56" value="融合时间+空间" style="text;whiteSpace=wrap;html=1;" vertex="1" parent="1">
          <mxGeometry x="530" y="1850" width="110" height="40" as="geometry" />
        </mxCell>
      </root>
    </mxGraphModel>
  </diagram>
</mxfile>
